# xmcd
#
# Track frame offsets:
#	150
#	9140
#	19737
#	27932
#	39207
#	52997
#	66840
#	79325
#	90250
#	99057
#	109277
#	119632
#	129870
#	145530
#	152702
#	169512
#	175130
#	185502
#	196135
#
# Disc length: 2748 seconds
#
# Revision: 0
# Processed by: cddbd v1.5.2PL0 Copyright (c) Steve Scherf et al.
# Submitted via: EasyCDDAExtractor 16.0.6.1
#
DISCID=dd0aba13
DTITLE=Συλλογικός δίσκος - Τραγούδια και σκοποί απ' όλη την Ελλάδα
DYEAR=1995
DGENRE=Παραδοσιακή
TTITLE0=Άνευ ερμηνευτού - Η Γαλανή [οργ., καλαματιανό Μακεδονίας]
TTITLE1=Κονιτοπούλου-Λεγάκη Ειρήνη - Θάλασσα απ' όλα τα νερά [συρτός και μπάλο
TTITLE1=ς Κυκλάδων]
TTITLE2=Άνευ ερμηνευτού - Ποιμενικός σκοπός [οργ., στεριανό, φλ. Δ. Ψίγγας]
TTITLE3=Συγκρ. Κ. Μπατσίδη κ Χ. Παπαδόπουλου - Αλησμονώ και χαίρομαι [βορειοηπ
TTITLE3=ειρώτικο ξενητειάς]
TTITLE4=Άνευ ερμηνευτού - Σπαρτιλιώτικος χορός Κέρκυρας [οργ., συγκρ. Χ. Μέξα 
TTITLE4=κ Ι. Μπεζέρη]
TTITLE5=Ζυγοβίνας Χρήστος - Γιούργια [συρτό Θεσσαλίας]
TTITLE6=Άνευ ερμηνευτού - Μυλοποταμίτικο πεντοζάλι [οργ., χορός Κρήτης, λύρα Ε
TTITLE6=Φυσάκης]
TTITLE7=Καρζή Αμαλία - Σού είπα μάνα πάντρεψέ με [τσακωνικός χορός Πελοποννήσο
TTITLE7=υ]
TTITLE8=Άνευ ερμηνευτού - Συννέφιασε στον Παρνασσό [οργ., τσάμικο Ρούμελης]
TTITLE9=Άνευ ερμηνευτού - Σούστα Κύπρου [οργανικό]
TTITLE10=Σαμίου Δόμνα - Νανούρισμα [Μικράς Ασίας]
TTITLE11=Άνευ ερμηνευτού - Αντικριστός [οργ., χορός Μικράς Ασίας]
TTITLE12=Γκινής Παντελής-ομάδα ανδρών - Αγάντα γιαλέσα[ΣφουγγαράδικοΤραγούδιΚα
TTITLE12=λύμνου,ΤσιμάρειΟΚαπετάνΠαντελήςΤοΤσούρμοΤου]
TTITLE13=Άνευ ερμηνευτού - Σόλο ούτι [οργ., ελεύθερη μελωδία Μικράς Ασίας, ούτ
TTITLE13=ι Α. Τομπούλης]
TTITLE14=Αηδονίδης Χρόνης - Άνοιξε χείλη μου, άνοιξε [καθιστό τραγούδι Θράκης]
TTITLE15=Άνευ ερμηνευτού - Κότσιαρι [οργ., ποντιακός χορός, λύρα Ν. Σπανίδης]
TTITLE16=Άνευ ερμηνευτού - Μοιρολόγι [οργ., σκοπός Ηπείρου, κλ. Φ. Ρούντας]
TTITLE17=Καρζή Αμαλία - Απόψε δεν επλάγιασα [καλαματιανό Πελοποννήσου]
TTITLE18=Άνευ ερμηνευτού - Γεραγώτικο συρτό [οργ., Μυτιλήνης]
EXTD=
EXTT0=
EXTT1=
EXTT2=
EXTT3=
EXTT4=
EXTT5=
EXTT6=
EXTT7=
EXTT8=
EXTT9=
EXTT10=
EXTT11=
EXTT12=
EXTT13=
EXTT14=
EXTT15=
EXTT16=
EXTT17=
EXTT18=
PLAYORDER=
